<svg width="23" height="23" viewBox="0 0 23 23" fill="none" xmlns="http://www.w3.org/2000/svg">
<g id="uil:angle-right-b">
<path id="Vector" d="M14.8923 10.8196L9.46812 5.40499C9.37903 5.31517 9.27304 5.24388 9.15626 5.19522C9.03948 5.14657 8.91422 5.12152 8.78771 5.12152C8.66119 5.12152 8.53594 5.14657 8.41915 5.19522C8.30237 5.24388 8.19638 5.31517 8.10729 5.40499C7.9288 5.58455 7.82861 5.82744 7.82861 6.08062C7.82861 6.3338 7.9288 6.57669 8.10729 6.75624L12.851 11.5479L8.10729 16.2917C7.9288 16.4712 7.82861 16.7141 7.82861 16.9673C7.82861 17.2205 7.9288 17.4634 8.10729 17.6429C8.19605 17.7335 8.30189 17.8055 8.41869 17.8549C8.53548 17.9042 8.66091 17.9299 8.78771 17.9304C8.9145 17.9299 9.03993 17.9042 9.15673 17.8549C9.27352 17.8055 9.37937 17.7335 9.46812 17.6429L14.8923 12.2283C14.9896 12.1386 15.0672 12.0297 15.1203 11.9084C15.1734 11.7872 15.2008 11.6563 15.2008 11.524C15.2008 11.3916 15.1734 11.2607 15.1203 11.1395C15.0672 11.0182 14.9896 10.9093 14.8923 10.8196Z" fill="#3061B9"/>
</g>
</svg>
