<svg id="Layer_1" data-name="Layer 1" xmlns="http://www.w3.org/2000/svg" viewBox="0 0 25 25" stroke-width="1.6" width="20" height="20" color="#000000"><defs><style>.cls-6374f543b67f094e4896c5f5-1{fill:none;stroke:currentColor;stroke-miterlimit:10;}</style></defs><path class="cls-6374f543b67f094e4896c5f5-1" d="M19.24,19.6A10.5,10.5,0,1,0,1.5,12a10.44,10.44,0,0,0,3.26,7.6"></path><path class="cls-6374f543b67f094e4896c5f5-1" d="M17.07,16.34A6.58,6.58,0,0,0,18.68,12,6.68,6.68,0,0,0,5.32,12a6.58,6.58,0,0,0,1.61,4.34"></path><path class="cls-6374f543b67f094e4896c5f5-1" d="M14.73,12.85a5.08,5.08,0,0,0,.13-.85,2.84,2.84,0,0,0-2.58-2.84,2,2,0,0,0-.56,0A2.84,2.84,0,0,0,9.14,12a5.08,5.08,0,0,0,.13.85"></path><polygon class="cls-6374f543b67f094e4896c5f5-1" points="17.73 22.5 6.27 22.5 12 13.91 17.73 22.5"></polygon></svg>