<svg width="20" height="20" viewBox="0 0 20 20" fill="none" xmlns="http://www.w3.org/2000/svg">
<path d="M9.99935 1.66699C5.39935 1.66699 1.66602 5.40033 1.66602 10.0003C1.66602 14.6003 5.39935 18.3337 9.99935 18.3337C14.5993 18.3337 18.3327 14.6003 18.3327 10.0003C18.3327 5.40033 14.5993 1.66699 9.99935 1.66699ZM9.99935 10.8337C9.54102 10.8337 9.16602 10.4587 9.16602 10.0003V6.66699C9.16602 6.20866 9.54102 5.83366 9.99935 5.83366C10.4577 5.83366 10.8327 6.20866 10.8327 6.66699V10.0003C10.8327 10.4587 10.4577 10.8337 9.99935 10.8337ZM10.8327 14.167H9.16602V12.5003H10.8327V14.167Z" fill="#E30F0F"/>
</svg>
