<svg width="20" height="20" viewBox="0 0 20 20" fill="none" xmlns="http://www.w3.org/2000/svg">
<path d="M11.769 16.1133C11.379 16.4908 10.9823 16.8741 10.5807 17.2641C10.419 17.4216 10.209 17.5 9.99984 17.5C9.79067 17.5 9.58067 17.4216 9.419 17.2641C5.28734 13.2533 1.6665 9.9183 1.6665 6.81414C1.6665 2.0983 7.81317 0.999136 9.99984 4.7633C12.1698 1.02747 18.3332 2.08247 18.3332 6.81414C18.3332 7.3808 18.2132 7.95497 17.9915 8.53914C17.1073 7.68914 15.9057 7.1658 14.5832 7.1658C11.8698 7.1658 9.6665 9.36913 9.6665 12.0825C9.6665 13.7491 10.4982 15.2241 11.769 16.1133ZM14.584 8.3333C16.734 8.3333 18.3332 10.0891 18.3332 12.0825C18.3332 14.2325 16.579 15.8316 14.584 15.8316C12.429 15.8316 10.834 14.0716 10.834 12.0825C10.834 10.0775 12.4457 8.3333 14.584 8.3333ZM15.0007 11.6658V10.4158C15.0007 10.195 14.8048 9.99914 14.584 9.99914C14.3623 9.99914 14.1673 10.195 14.1673 10.4158V11.6658H12.9173C12.6957 11.6658 12.5007 11.8616 12.5007 12.0825C12.5007 12.3033 12.6957 12.4991 12.9173 12.4991H14.1673V13.7491C14.1673 13.97 14.3623 14.1658 14.584 14.1658C14.8048 14.1658 15.0007 13.97 15.0007 13.7491V12.4991H16.2498C16.4715 12.4991 16.6665 12.3033 16.6665 12.0825C16.6665 11.8616 16.4715 11.6658 16.2498 11.6658H15.0007Z" fill="#3061B9"/>
</svg>
