<svg width="18" height="18" viewBox="0 0 18 18" fill="none" xmlns="http://www.w3.org/2000/svg">
<g clip-path="url(#clip0_771_4740)">
<path d="M11.175 14.3575L9.08996 16.4417C7.01171 18.5207 3.63896 18.5207 1.55921 16.4417C-0.519787 14.362 -0.519037 10.99 1.55921 8.91098L3.64346 6.82673L5.23421 8.41748L3.14996 10.5017C1.95146 11.7002 1.95146 13.6517 3.14996 14.8495C4.34996 16.0495 6.30071 16.0495 7.49921 14.8495L9.58346 12.7667L11.175 14.3575ZM8.90996 1.56023L6.82571 3.64448L8.41646 5.23523L10.5015 3.15098C11.7 1.95248 13.6507 1.95248 14.8477 3.15173C16.0492 4.35023 16.0492 6.30098 14.8507 7.49948L12.7665 9.58373L14.3572 11.1745L16.4415 9.09098C18.5197 7.01123 18.5197 3.63923 16.4415 1.56023C14.361 -0.518773 10.989 -0.518773 8.90996 1.56023ZM4.45121 0.963977L5.53121 0.810977L5.85971 3.12323L4.78121 3.27698L4.45121 0.963977ZM0.809963 5.53148L0.964463 4.45073L3.27746 4.78073L3.12296 5.86073L0.809963 5.53148ZM4.40471 3.64073L3.63371 4.41323L1.97996 2.76098L2.75171 1.98923L4.40471 3.64073ZM13.548 17.0357L12.4672 17.1887L12.1387 14.8765L13.218 14.7227L13.548 17.0357ZM17.19 12.4682L17.0347 13.549L14.7217 13.2197L14.877 12.139L17.19 12.4682ZM13.5952 14.3582L14.3655 13.5865L16.0192 15.2395L15.2475 16.0112L13.5952 14.3582Z" fill="#3061B9"/>
</g>
<defs>
<clipPath id="clip0_771_4740">
<rect width="18" height="18" fill="white"/>
</clipPath>
</defs>
</svg>
