<svg width="25" height="25" viewBox="0 0 25 25" fill="none" xmlns="http://www.w3.org/2000/svg">
<g clip-path="url(#clip0_544_5512)">
<path d="M23.1127 10.6124C23.1127 4.76099 18.3535 0 12.501 0C11.5157 0 10.5671 0.145639 9.6616 0.398356L9.64025 0.383895C9.63543 0.391125 9.63164 0.399044 9.62648 0.406275C5.16951 1.66332 1.88867 5.75774 1.88867 10.6117C1.88867 12.7501 2.52976 14.7402 3.62154 16.4066H2.38791V25.0003H22.6149V16.4066H21.3819C22.4747 14.7416 23.1127 12.7508 23.1127 10.6124ZM22.0571 10.099H18.2323C18.1947 8.9587 18.066 7.83766 17.8367 6.74932H21.2631C21.7211 7.78153 21.9951 8.91256 22.0571 10.099ZM20.7243 5.71711H17.5826C17.1987 4.3041 16.6598 2.95134 15.9561 1.68363C17.9589 2.46347 19.6332 3.89404 20.7243 5.71711ZM13.0168 1.05666C13.516 1.08351 14.007 1.1386 14.4849 1.24017C15.3753 2.62082 16.0601 4.12472 16.5204 5.7178H13.0168V1.05666ZM13.0168 6.74932H16.7855C17.0293 7.83593 17.1642 8.95594 17.2052 10.099H13.0175V6.74932H13.0168ZM13.0168 11.1271H17.2135C17.1921 12.2674 17.074 13.3888 16.8478 14.4775H13.0168V11.1271ZM13.0168 15.508H16.5996C16.5156 15.8113 16.4199 16.1095 16.3207 16.408H13.0165L13.0168 15.508ZM10.2958 1.2956C10.8429 1.16718 11.4075 1.08696 11.9863 1.05631V5.71745H8.40353C8.82667 4.15295 9.4619 2.66592 10.2958 1.2956ZM7.7886 10.099C7.80995 8.95939 7.92908 7.83766 8.1546 6.74932H11.9863V10.099H7.7886ZM11.9863 11.1271V14.4775H8.21691C7.97418 13.3905 7.83922 12.2695 7.79859 11.1271H11.9863ZM8.85077 1.758C8.19694 3.00678 7.69427 4.33543 7.34308 5.71849H4.27743C5.33305 3.9536 6.93267 2.55023 8.85077 1.758ZM3.73894 6.74932H7.10861C6.89549 7.84041 6.77877 8.96076 6.75708 10.099H2.94395C3.00799 8.91256 3.28171 7.78153 3.73894 6.74932ZM2.94464 11.1271H6.76947C6.80735 12.2681 6.93612 13.3888 7.16611 14.4775H3.73963C3.28171 13.4442 3.00799 12.3153 2.94464 11.1271ZM7.4202 15.508C7.50318 15.8113 7.59545 16.1095 7.69289 16.408H4.89717C4.67682 16.1188 4.4661 15.8213 4.27812 15.508H7.4202ZM8.60804 23.0068V23.5078H4.64858V17.8995H5.23252H5.81955V22.509H8.60804V23.0068ZM8.48237 15.508H11.9856V16.408H8.77778C8.6738 16.1095 8.56982 15.813 8.48237 15.508ZM10.261 23.5078H9.67709H9.09006V17.8995H9.67399H10.261V23.5078ZM13.6889 23.5078H13.1325H12.5758L10.6763 17.8995H11.2981H11.9206L13.1528 22.1781L14.3809 17.8995H14.9824H15.5891L13.6889 23.5078ZM20.3535 23.0068V23.5078H16.0986V17.8995H20.2247V18.3943V18.8956H17.2686V20.0851H20.0102V20.5658V21.0495H17.2686V22.51H20.3552V23.0065L20.3535 23.0068ZM20.1063 16.408H17.4039C17.4941 16.1095 17.5815 15.8113 17.659 15.508H20.7243C20.5367 15.8223 20.326 16.1188 20.1063 16.408ZM17.8931 14.4778C18.1059 13.3874 18.2223 12.266 18.2443 11.1274H22.0571C21.9951 12.3146 21.7211 13.4436 21.2631 14.4778H17.8931Z" fill="#3061B9"/>
</g>
<defs>
<clipPath id="clip0_544_5512">
<rect width="25" height="25" fill="white"/>
</clipPath>
</defs>
</svg>
